<svg width="218" height="116" viewBox="0 0 218 116" fill="none" xmlns="http://www.w3.org/2000/svg">
<path d="M22.9 56.95L19.8 44.9C19.15 42.35 18.8 39.95 18.35 36.95C17.85 39.9 17.45 42.35 16.8 44.8L13.65 56.95C13.25 58.55 12.25 59.3 10.55 59.3C8.75 59.3 7.85 58.5 7.4 56.95L1.35 35.8C1.25 35.5 1.25 35.25 1.25 35C1.25 33.75 2.15 32.95 4 32.95C5.25 32.95 5.95 33.5 6.25 34.7L9.4 47.6C10 50 10.3 52.5 10.75 55.1C11.25 52.55 11.6 50 12.25 47.45L15.45 35.2C15.85 33.7 16.75 33 18.3 33C19.85 33 20.75 33.7 21.15 35.2L24.5 47.95C25.15 50.35 25.45 52.65 25.85 55.1C26.35 52.65 26.75 50.3 27.35 47.95L30.7 34.65C31 33.5 31.7 32.95 32.9 32.95C34.55 32.95 35.55 33.65 35.55 34.8C35.55 35.05 35.5 35.35 35.4 35.65L29.15 56.95C28.7 58.55 27.7 59.3 26 59.3C24.25 59.3 23.3 58.5 22.9 56.95ZM51.0164 59.65C43.0664 59.65 39.0164 53.65 39.0164 46.1C39.0164 38.7 43.1164 32.65 51.0664 32.65C58.9164 32.65 63.0164 38.6 63.0164 46.1C63.0164 53.75 59.0164 59.65 51.0164 59.65ZM51.0164 55.55C55.4664 55.55 58.0164 52.15 58.0164 46.1C58.0164 40.15 55.4164 36.75 51.0664 36.75C46.6664 36.75 44.0164 40.2 44.0164 46.1C44.0164 52.05 46.6164 55.55 51.0164 55.55ZM90.2344 42.85V57.1C90.2344 58.6 89.3844 59.35 87.7344 59.35C86.0344 59.35 85.2344 58.6 85.2344 57.1V43.1C85.2344 38.9 83.6344 36.9 80.6344 36.9C77.9344 36.9 75.7844 38.65 73.6344 42.15V57.05C73.6344 58.6 72.8844 59.35 71.1844 59.35C69.5344 59.35 68.7344 58.6 68.7344 57.05V35.2C68.7344 33.7 69.5344 32.95 71.2344 32.95C72.8844 32.95 73.6344 33.7 73.6344 35.2V36.55C75.5344 34.15 77.9844 32.65 81.0344 32.65C87.1844 32.65 90.2344 36.05 90.2344 42.85ZM114.706 60.25V55.45C112.956 58.1 110.356 59.3 107.206 59.3C99.3059 59.3 95.7059 52.65 95.7059 45.9C95.7059 39 99.6559 32.65 107.256 32.65C110.156 32.65 112.606 33.7 114.606 36.2V35.2C114.606 33.65 115.356 32.9 117.006 32.9C118.656 32.9 119.506 33.65 119.506 35.2V59.8C119.506 67.7 114.656 72.15 107.856 72.15C101.906 72.15 97.5559 69.25 96.7559 64.75C96.7559 64.55 96.7059 64.4 96.7059 64.25C96.7059 62.85 97.6559 62.05 99.5559 62.05C100.756 62.05 101.506 62.55 101.756 63.9C102.206 66.3 104.556 67.95 107.856 67.95C111.206 67.95 114.706 65.85 114.706 60.25ZM114.606 49.8V41.85C112.956 38.65 110.606 36.85 107.656 36.85C103.456 36.85 100.706 40.35 100.706 45.9C100.706 51.5 103.356 55.1 107.606 55.1C110.606 55.1 112.956 53.15 114.606 49.8Z" fill="#FFCB03"/>
<rect x="126.721" width="91.2786" height="91.2786" rx="45.6393" fill="#39DB4A"/>
<path d="M140.936 36.3011C142.951 29.046 151.959 26.5369 157.435 31.7052L187.412 59.9986C193.072 65.3406 190.729 74.8159 183.232 76.9043L142.221 88.3279C134.724 90.4163 127.82 83.5169 129.903 76.0181L140.936 36.3011Z" fill="#39DB4A"/>
<path d="M140.574 50.5081C141.582 46.8806 146.086 45.626 148.824 48.2102L171.15 69.2817C173.98 71.9527 172.808 76.6904 169.059 77.7346L138.517 86.2423C134.768 87.2865 131.316 83.8368 132.357 80.0874L140.574 50.5081Z" fill="#39DB4A"/>
<rect x="131.158" y="3.80322" width="83.0382" height="83.0382" rx="41.5191" fill="#39DB4A"/>
<path d="M156 42.8505V57.1005C156 58.6005 155.15 59.3505 153.5 59.3505C151.8 59.3505 151 58.6005 151 57.1005V43.1005C151 38.9005 149.4 36.9005 146.4 36.9005C143.7 36.9005 141.55 38.6505 139.4 42.1505V57.0505C139.4 58.6005 138.65 59.3505 136.95 59.3505C135.3 59.3505 134.5 58.6005 134.5 57.0505V35.2005C134.5 33.7005 135.3 32.9505 137 32.9505C138.65 32.9505 139.4 33.7005 139.4 35.2005V36.5505C141.3 34.1505 143.75 32.6505 146.8 32.6505C152.95 32.6505 156 36.0505 156 42.8505ZM173.471 59.6505C165.521 59.6505 161.471 53.6505 161.471 46.1005C161.471 38.7005 165.571 32.6505 173.521 32.6505C181.371 32.6505 185.471 38.6005 185.471 46.1005C185.471 53.7505 181.471 59.6505 173.471 59.6505ZM173.471 55.5505C177.921 55.5505 180.471 52.1505 180.471 46.1005C180.471 40.1505 177.871 36.7505 173.521 36.7505C169.121 36.7505 166.471 40.2005 166.471 46.1005C166.471 52.0505 169.071 55.5505 173.471 55.5505ZM196.089 22.4005V45.0505C197.139 43.9005 198.139 42.7505 199.089 41.8005L207.089 33.6505C207.589 33.1505 208.189 32.9005 208.839 32.9005C210.139 32.9005 211.489 34.1005 211.489 35.4005C211.489 35.9505 211.289 36.4505 210.739 37.0005L203.189 44.0505L211.739 55.4505C212.089 55.9005 212.239 56.4005 212.239 56.8505C212.239 58.2505 210.839 59.3005 209.489 59.3005C208.789 59.3005 208.139 59.0005 207.639 58.3005L199.689 47.2005L196.089 50.5005V57.0005C196.089 58.6005 195.289 59.3505 193.589 59.3505C191.989 59.3505 191.189 58.6005 191.189 57.0005V22.4005C191.189 20.8505 191.989 20.1005 193.589 20.1005C195.289 20.1005 196.089 20.8505 196.089 22.4005Z" fill="white"/>
</svg>